<?xml version="1.0" encoding="UTF-8" standalone="no"?>
<!DOCTYPE svg PUBLIC "-//W3C//DTD SVG 1.1//EN" "http://www.w3.org/Graphics/SVG/1.1/DTD/svg11.dtd">
<svg version="1.1" xmlns="http://www.w3.org/2000/svg" xmlns:xlink="http://www.w3.org/1999/xlink" preserveAspectRatio="xMidYMid meet" viewBox="0 0 640 640" width="640" height="640"><defs><path d="M579.5 268.39C579.46 268.31 579.42 268.25 579.38 268.16C578.87 267.1 578.17 266.14 577.32 265.34C577.29 265.31 577.27 265.27 577.24 265.24C571.56 260.05 543.13 234.07 491.97 187.32C491.97 140.66 491.97 114.74 491.97 109.55C491.97 104.27 487.69 100 482.42 100C476.68 100 447.98 100 396.31 100C352.64 60.1 328.39 37.93 323.53 33.5C319.89 30.17 314.31 30.16 310.65 33.5C305.8 37.93 281.52 60.1 237.83 100C189.34 100 162.41 100 157.02 100C151.74 100 147.47 104.27 147.47 109.55C147.47 114.42 147.47 138.74 147.47 182.51C93.15 232.15 62.97 259.72 56.93 265.24C56.9 265.27 56.89 265.31 56.85 265.34C56 266.14 55.31 267.1 54.79 268.16C54.75 268.25 54.7 268.32 54.66 268.4C54.22 269.4 53.96 270.49 53.88 271.63C53.87 271.76 53.85 271.88 53.84 272.01C53.84 272.11 53.81 272.2 53.81 272.3C53.81 304.7 53.81 563.88 53.81 596.28C53.81 597.33 54.02 598.32 54.33 599.26C54.38 599.39 54.4 599.51 54.45 599.64C54.86 600.73 55.47 601.72 56.23 602.58C56.28 602.63 56.29 602.7 56.33 602.75C56.37 602.79 56.42 602.82 56.47 602.86C56.78 603.19 57.12 603.47 57.48 603.75C57.64 603.87 57.78 604.02 57.94 604.13C58.36 604.43 58.82 604.66 59.28 604.88C59.4 604.93 59.5 605.01 59.61 605.06C60.76 605.55 62.03 605.83 63.36 605.83C114.11 605.83 520.05 605.83 570.79 605.83C576.06 605.83 580.34 601.55 580.34 596.28C580.34 563.88 580.34 304.69 580.34 272.3C580.36 272.19 580.33 272.1 580.32 272C580.32 271.88 580.3 271.76 580.29 271.63C580.2 270.49 579.95 269.39 579.5 268.39ZM150.52 365.73C155.51 370.29 180.46 393.08 225.38 434.12C215.22 443.48 164.4 490.27 72.93 574.49C72.93 406.71 72.93 313.5 72.93 294.86C119.29 337.21 145.04 360.73 150.19 365.44C150.29 365.54 150.41 365.63 150.52 365.73ZM319.72 516.9C322.03 516.9 324.34 516.07 326.16 514.41C331.06 509.94 355.56 487.59 399.66 447.36C409.47 456.65 458.51 503.1 546.79 586.72L87.86 586.72C178.87 502.92 229.43 456.36 239.54 447.05C283.78 487.46 308.36 509.91 313.28 514.4C315.1 516.07 317.41 516.9 319.72 516.9ZM561.25 574.11L413.81 434.46L561.25 299.98L561.25 574.11ZM491.97 213.2L559.94 275.31L491.97 337.3L491.97 213.2ZM266.16 100L317.08 53.49L367.99 100L266.16 100ZM472.87 192.07C472.87 202.91 472.87 257.13 472.87 354.73C424.95 398.44 398.32 422.73 393 427.58C392.94 427.64 392.86 427.66 392.81 427.72C392.78 427.74 392.78 427.78 392.75 427.81C387.88 432.25 363.54 454.45 319.73 494.42C309.52 485.09 258.47 438.46 166.57 354.53L166.57 119.1C350.35 119.1 452.45 119.1 472.87 119.1C472.87 162.63 472.87 186.81 472.87 191.65C472.87 191.8 472.86 191.93 472.87 192.07ZM147.47 208.39L147.47 337.08L77.04 272.75L147.47 208.39Z" id="bevpGYf90"></path><path d="M579.5 268.39C579.46 268.31 579.42 268.25 579.38 268.16C578.87 267.1 578.17 266.14 577.32 265.34C577.29 265.31 577.27 265.27 577.24 265.24C571.56 260.05 543.13 234.07 491.97 187.32C491.97 140.66 491.97 114.74 491.97 109.55C491.97 104.27 487.69 100 482.42 100C476.68 100 447.98 100 396.31 100C352.64 60.1 328.39 37.93 323.53 33.5C319.89 30.17 314.31 30.16 310.65 33.5C305.8 37.93 281.52 60.1 237.83 100C189.34 100 162.41 100 157.02 100C151.74 100 147.47 104.27 147.47 109.55C147.47 114.42 147.47 138.74 147.47 182.51C93.15 232.15 62.97 259.72 56.93 265.24C56.9 265.27 56.89 265.31 56.85 265.34C56 266.14 55.31 267.1 54.79 268.16C54.75 268.25 54.7 268.32 54.66 268.4C54.22 269.4 53.96 270.49 53.88 271.63C53.87 271.76 53.85 271.88 53.84 272.01C53.84 272.11 53.81 272.2 53.81 272.3C53.81 304.7 53.81 563.88 53.81 596.28C53.81 597.33 54.02 598.32 54.33 599.26C54.38 599.39 54.4 599.51 54.45 599.64C54.86 600.73 55.47 601.72 56.23 602.58C56.28 602.63 56.29 602.7 56.33 602.75C56.37 602.79 56.42 602.82 56.47 602.86C56.78 603.19 57.12 603.47 57.48 603.75C57.64 603.87 57.78 604.02 57.94 604.13C58.36 604.43 58.82 604.66 59.28 604.88C59.4 604.93 59.5 605.01 59.61 605.06C60.76 605.55 62.03 605.83 63.36 605.83C114.11 605.83 520.05 605.83 570.79 605.83C576.06 605.83 580.34 601.55 580.34 596.28C580.34 563.88 580.34 304.69 580.34 272.3C580.36 272.19 580.33 272.1 580.32 272C580.32 271.88 580.3 271.76 580.29 271.63C580.2 270.49 579.95 269.39 579.5 268.39ZM150.52 365.73C155.51 370.29 180.46 393.08 225.38 434.12C215.22 443.48 164.4 490.27 72.93 574.49C72.93 406.71 72.93 313.5 72.93 294.86C119.29 337.21 145.04 360.73 150.19 365.44C150.29 365.54 150.41 365.63 150.52 365.73ZM319.72 516.9C322.03 516.9 324.34 516.07 326.16 514.41C331.06 509.94 355.56 487.59 399.66 447.36C409.47 456.65 458.51 503.1 546.79 586.72L87.86 586.72C178.87 502.92 229.43 456.36 239.54 447.05C283.78 487.46 308.36 509.91 313.28 514.4C315.1 516.07 317.41 516.9 319.72 516.9ZM561.25 574.11L413.81 434.46L561.25 299.98L561.25 574.11ZM491.97 213.2L559.94 275.31L491.97 337.3L491.97 213.2ZM266.16 100L317.08 53.49L367.99 100L266.16 100ZM472.87 192.07C472.87 202.91 472.87 257.13 472.87 354.73C424.95 398.44 398.32 422.73 393 427.58C392.94 427.64 392.86 427.66 392.81 427.72C392.78 427.74 392.78 427.78 392.75 427.81C387.88 432.25 363.54 454.45 319.73 494.42C309.52 485.09 258.47 438.46 166.57 354.53L166.57 119.1C350.35 119.1 452.45 119.1 472.87 119.1C472.87 162.63 472.87 186.81 472.87 191.65C472.87 191.8 472.86 191.93 472.87 192.07ZM147.47 208.39L147.47 337.08L77.04 272.75L147.47 208.39Z" id="bKrjjuOQ9"></path><path d="M383.01 356.31C379.96 352 373.98 350.99 369.7 354.06C354.99 364.5 337.71 370.02 319.71 370.02C272.28 370.02 233.7 331.42 233.7 283.96C233.7 236.49 272.28 197.87 319.71 197.87C354.45 197.87 382.43 215.19 396.82 245.43C396.82 250.61 396.82 292.06 396.82 297.24C396.82 305.83 389.81 312.82 381.2 312.82C373.01 312.82 365.33 305.16 364.68 296.76C365.8 292.67 366.45 288.39 366.45 283.96C366.45 257.21 344.66 235.44 317.89 235.44C291.11 235.44 269.33 257.2 269.33 283.96C269.33 310.71 291.11 332.47 317.89 332.47C331.72 332.47 344.18 326.64 353.03 317.34C359.69 326.06 370.03 331.92 381.19 331.92C400.34 331.92 415.92 316.36 415.92 297.24C415.92 291.84 415.92 248.6 415.92 243.2C415.92 243.16 415.9 243.11 415.9 243.07C415.9 242.79 415.85 242.51 415.82 242.23C415.78 241.87 415.76 241.51 415.69 241.16C415.66 241 415.59 240.85 415.54 240.7C415.41 240.23 415.28 239.77 415.09 239.34C415.08 239.32 415.08 239.3 415.06 239.27C397.95 201.38 362.3 178.76 319.7 178.76C261.74 178.76 214.58 225.96 214.58 283.96C214.6 341.95 261.76 389.13 319.72 389.13C341.7 389.13 362.81 382.38 380.76 369.63C385.06 366.58 386.08 360.61 383.01 356.31ZM317.9 254.55C334.14 254.55 347.36 267.74 347.36 283.96C347.36 300.18 334.14 313.37 317.9 313.37C301.67 313.37 288.45 300.18 288.45 283.96C288.45 267.75 301.67 254.55 317.9 254.55Z" id="c4w2E7lK3h"></path><path d="M383.01 356.31C379.96 352 373.98 350.99 369.7 354.06C354.99 364.5 337.71 370.02 319.71 370.02C272.28 370.02 233.7 331.42 233.7 283.96C233.7 236.49 272.28 197.87 319.71 197.87C354.45 197.87 382.43 215.19 396.82 245.43C396.82 250.61 396.82 292.06 396.82 297.24C396.82 305.83 389.81 312.82 381.2 312.82C373.01 312.82 365.33 305.16 364.68 296.76C365.8 292.67 366.45 288.39 366.45 283.96C366.45 257.21 344.66 235.44 317.89 235.44C291.11 235.44 269.33 257.2 269.33 283.96C269.33 310.71 291.11 332.47 317.89 332.47C331.72 332.47 344.18 326.64 353.03 317.34C359.69 326.06 370.03 331.92 381.19 331.92C400.34 331.92 415.92 316.36 415.92 297.24C415.92 291.84 415.92 248.6 415.92 243.2C415.92 243.16 415.9 243.11 415.9 243.07C415.9 242.79 415.85 242.51 415.82 242.23C415.78 241.87 415.76 241.51 415.69 241.16C415.66 241 415.59 240.85 415.54 240.7C415.41 240.23 415.28 239.77 415.09 239.34C415.08 239.32 415.08 239.3 415.06 239.27C397.95 201.38 362.3 178.76 319.7 178.76C261.74 178.76 214.58 225.96 214.58 283.96C214.6 341.95 261.76 389.13 319.72 389.13C341.7 389.13 362.81 382.38 380.76 369.63C385.06 366.58 386.08 360.61 383.01 356.31ZM317.9 254.55C334.14 254.55 347.36 267.74 347.36 283.96C347.36 300.18 334.14 313.37 317.9 313.37C301.67 313.37 288.45 300.18 288.45 283.96C288.45 267.75 301.67 254.55 317.9 254.55Z" id="e2AmyXUP2j"></path></defs><g><g><g><use xlink:href="#bevpGYf90" opacity="1" fill="#d8d8d8" fill-opacity="1"></use><g><use xlink:href="#bevpGYf90" opacity="1" fill-opacity="0" stroke="#000000" stroke-width="1" stroke-opacity="0"></use></g></g><g><use xlink:href="#bKrjjuOQ9" opacity="1" fill="#f8f8f8" fill-opacity="1"></use><g><use xlink:href="#bKrjjuOQ9" opacity="1" fill-opacity="0" stroke="#000000" stroke-width="1" stroke-opacity="0"></use></g></g><g><use xlink:href="#c4w2E7lK3h" opacity="1" fill="#d8d8d8" fill-opacity="1"></use><g><use xlink:href="#c4w2E7lK3h" opacity="1" fill-opacity="0" stroke="#000000" stroke-width="1" stroke-opacity="0"></use></g></g><g><use xlink:href="#e2AmyXUP2j" opacity="1" fill="#f8f8f8" fill-opacity="1"></use><g><use xlink:href="#e2AmyXUP2j" opacity="1" fill-opacity="0" stroke="#000000" stroke-width="1" stroke-opacity="0"></use></g></g></g></g></svg>